HIERARCHY
ROOT Hips
{
	OFFSET 0.000000 0.000000 0.000000 
	CHANNELS 6 Xposition Yposition Zposition Zrotation Yrotation Xrotation
	JOINT LeftUpLeg
	{
		OFFSET 1.363060 -1.794630 0.839290 
		CHANNELS 3 Zrotation Yrotation Xrotation
		JOINT LeftLeg
		{
			OFFSET 2.448110 -6.726130 0.000000 
			CHANNELS 3 Zrotation Yrotation Xrotation
			JOINT LeftFoot
			{
				OFFSET 2.562200 -7.039590 0.000000 
				CHANNELS 3 Zrotation Yrotation Xrotation
				JOINT LeftToeBase
				{
					OFFSET 0.157640 -0.433110 2.322550 
					CHANNELS 3 Zrotation Yrotation Xrotation
					End Site
					{
						OFFSET 0.000000 0.000000 0.000000 
					}
				}
			}
		}
	}
	JOINT RightUpLeg
	{
		OFFSET -1.305520 -1.794630 0.839290 
		CHANNELS 3 Zrotation Yrotation Xrotation
		JOINT RightLeg
		{
			OFFSET -2.542530 -6.985550 0.000000 
			CHANNELS 3 Zrotation Yrotation Xrotation
			JOINT RightFoot
			{
				OFFSET -2.568260 -7.056230 0.000000 
				CHANNELS 3 Zrotation Yrotation Xrotation
				JOINT RightToeBase
				{
					OFFSET -0.164730 -0.452590 2.363150 
					CHANNELS 3 Zrotation Yrotation Xrotation
					End Site
					{
						OFFSET 0.000000 0.000000 0.000000 
					}
				}
			}
		}
	}
	JOINT Spine
	{
		OFFSET 0.028270 2.035590 -0.193380 
		CHANNELS 3 Zrotation Yrotation Xrotation
		JOINT Spine1
		{
			OFFSET 0.056720 2.048850 -0.042750 
			CHANNELS 3 Zrotation Yrotation Xrotation
			JOINT Neck1
			{
				OFFSET -0.054170 1.746240 0.172020 
				CHANNELS 3 Zrotation Yrotation Xrotation
				JOINT Head
				{
					OFFSET 0.104070 1.761360 -0.123970 
					CHANNELS 3 Zrotation Yrotation Xrotation
					End Site
					{
						OFFSET 0.000000 0.000000 0.000000 
					}
				}
			}
			JOINT LeftArm
			{
				OFFSET 3.362410 1.200890 -0.311210 
				CHANNELS 3 Zrotation Yrotation Xrotation
				JOINT LeftForeArm
				{
					OFFSET 4.983000 -0.000000 -0.000000 
					CHANNELS 3 Zrotation Yrotation Xrotation
					JOINT LeftHand
					{
						OFFSET 3.483560 -0.000000 -0.000000 
						CHANNELS 3 Zrotation Yrotation Xrotation
						JOINT LeftHandIndex1
						{
							OFFSET 0.715260 -0.000000 -0.000000 
							CHANNELS 3 Zrotation Yrotation Xrotation
							End Site
							{
								OFFSET 0.000000 0.000000 0.000000 
							}
						}
					}
				}
			}
			JOINT RightArm
			{
				OFFSET -3.136600 1.374050 -0.404650 
				CHANNELS 3 Zrotation Yrotation Xrotation
				JOINT RightForeArm
				{
					OFFSET -5.241900 -0.000000 -0.000000 
					CHANNELS 3 Zrotation Yrotation Xrotation
					JOINT RightHand
					{
						OFFSET -3.444170 -0.000000 -0.000000 
						CHANNELS 3 Zrotation Yrotation Xrotation
						JOINT RightHandIndex1
						{
							OFFSET -0.622530 -0.000000 -0.000000 
							CHANNELS 3 Zrotation Yrotation Xrotation
							End Site
							{
								OFFSET 0.000000 0.000000 0.000000 
							}
						}
					}
				}
			}
		}
	}
}
MOTION
Frames: 13
Frame Time: 0.041667
48.944770 17.220889 -6.936762 -69.335295 -87.713460 71.495982 -22.840321 0.288176 -2.760413 0.433121 5.456818 17.230154 -0.009679 5.373775 -14.021961 0.014000 -0.765000 -2.102500 32.932115 2.721554 -7.581397 -3.232906 -9.922712 29.588623 -1.485873 -1.467844 -23.861301 -0.865700 -5.932900 16.589900 0.771155 -0.785118 -1.500720 0.751219 -0.682259 5.655096 8.269436 -9.824043 5.583059 4.218000 -4.635200 3.744500 -80.298641 -0.943308 24.975493 11.990368 -19.831044 -2.956291 -1.173468 -0.417049 -7.268916 -7.125000 0.000000 0.000000 75.582781 -0.210252 20.478325 -11.839697 21.609422 -2.898130 0.248518 -0.742031 -2.282168 7.125000 0.000000 0.000000 
48.942311 17.220889 -6.936967 -68.368878 -87.730106 70.533058 -22.866715 0.242017 -2.721803 0.429510 5.444604 17.198865 -0.010515 5.396967 -14.050572 0.013000 -0.734900 -2.019600 32.906391 2.706606 -7.591643 -3.236446 -9.928146 29.605984 -1.485212 -1.489085 -23.869604 -0.852300 -5.887700 16.459100 0.771958 -0.797631 -1.503226 0.761611 -0.690876 5.656471 8.271961 -9.772433 5.557797 4.214600 -4.608100 3.727800 -80.303288 -0.939189 24.993208 11.990069 -19.833928 -2.958111 -1.176603 -0.422302 -7.290633 -7.125000 0.000000 0.000000 75.576894 -0.209384 20.494789 -11.843207 21.611012 -2.898076 0.249472 -0.740975 -2.262609 7.125000 0.000000 0.000000 
48.942004 17.220684 -6.936147 -68.346539 -87.737064 70.530240 -22.879690 0.238446 -2.738225 0.429187 5.446647 17.202558 -0.004920 5.360260 -14.056544 0.011500 -0.692500 -1.903000 32.890735 2.702035 -7.617341 -3.236192 -9.928635 29.605028 -1.485919 -1.457034 -23.857250 -0.859300 -5.911400 16.527600 0.770684 -0.800261 -1.506869 0.758486 -0.691378 5.639048 8.283575 -9.805558 5.575055 4.228300 -4.625800 3.738800 -80.320798 -0.944782 24.934644 11.984325 -19.821844 -2.953825 -1.172724 -0.414718 -7.227450 -7.125000 0.000000 0.000000 75.583485 -0.219031 20.522584 -11.851371 21.622752 -2.901178 0.249532 -0.741669 -2.312213 7.125000 0.000000 0.000000 
48.939340 17.220274 -6.937274 -68.573418 -87.711288 70.747793 -22.846746 0.233007 -2.726410 0.430328 5.446738 17.204927 -0.009315 5.394956 -14.061143 0.012900 -0.734100 -2.017500 32.934501 2.735551 -7.580486 -3.235549 -9.927124 29.602379 -1.489141 -1.492869 -23.902197 -0.858200 -5.907500 16.516300 0.772192 -0.788499 -1.506928 0.760282 -0.685331 5.644447 8.274156 -9.792968 5.572106 4.215800 -4.618700 3.739400 -80.312497 -0.945833 24.976445 11.985247 -19.824645 -2.954277 -1.173242 -0.415125 -7.244004 -7.125000 0.000000 0.000000 75.591389 -0.214782 20.504563 -11.849466 21.618142 -2.900309 0.248359 -0.741925 -2.293544 7.125000 0.000000 0.000000 
48.937290 17.220069 -6.937889 -68.643698 -87.697232 70.816200 -22.829957 0.221351 -2.724897 0.432052 5.450756 17.217081 -0.009927 5.404673 -14.070326 0.013300 -0.744300 -2.045600 32.958270 2.754439 -7.559038 -3.234184 -9.924450 29.594895 -1.490826 -1.513878 -23.926550 -0.857400 -5.904900 16.508600 0.773280 -0.785038 -1.507935 0.763575 -0.683424 5.641740 8.275264 -9.790666 5.570723 4.215100 -4.617300 3.739200 -80.314667 -0.949547 24.979196 11.980271 -19.818643 -2.952184 -1.172905 -0.413943 -7.234613 -7.125000 0.000000 0.000000 75.596328 -0.217599 20.511689 -11.853149 21.621779 -2.901364 0.248056 -0.742167 -2.299898 7.125000 0.000000 0.000000 
48.935138 17.219762 -6.938709 -68.752092 -87.679550 70.920988 -22.807994 0.212607 -2.727866 0.434646 5.457589 17.236954 -0.010452 5.411865 -14.076061 0.013900 -0.761300 -2.092300 32.987954 2.775643 -7.530465 -3.231734 -9.919456 29.580845 -1.492377 -1.539735 -23.953438 -0.856900 -5.903400 16.504500 0.774605 -0.781162 -1.508761 0.767434 -0.681164 5.637735 8.277743 -9.793048 5.569619 4.216200 -4.618500 3.738800 -80.316369 -0.952265 24.984811 11.974739 -19.812056 -2.949869 -1.172368 -0.412466 -7.227800 -7.125000 0.000000 0.000000 75.600814 -0.221907 20.522057 -11.856713 21.625720 -2.902548 0.247608 -0.742592 -2.311183 7.125000 0.000000 0.000000 
48.933191 17.219659 -6.939324 -68.770890 -87.662066 70.936679 -22.786724 0.203685 -2.729172 0.436785 5.462649 17.252265 -0.010945 5.417431 -14.078622 0.014400 -0.775600 -2.131600 33.016162 2.795232 -7.504994 -3.229557 -9.915191 29.568808 -1.494267 -1.563649 -23.981179 -0.856500 -5.902000 16.500400 0.775914 -0.778376 -1.509876 0.771106 -0.679578 5.632382 8.280654 -9.793182 5.566628 4.217800 -4.618500 3.737000 -80.317604 -0.953131 24.997651 11.969978 -19.806449 -2.947868 -1.172234 -0.413352 -7.233699 -7.125000 0.000000 0.000000 75.604859 -0.225908 20.534604 -11.860119 21.629284 -2.903654 0.247200 -0.743043 -2.321090 7.125000 0.000000 0.000000 
48.931347 17.219659 -6.939836 -68.661271 -87.648207 70.826008 -22.770885 0.194978 -2.730463 0.438497 5.466915 17.265066 -0.010868 5.416969 -14.079561 0.014800 -0.784700 -2.156600 33.036862 2.807184 -7.485619 -3.227687 -9.911515 29.557889 -1.495881 -1.580833 -24.003317 -0.856600 -5.902400 16.501400 0.777157 -0.778870 -1.511304 0.774298 -0.679784 5.626172 8.283663 -9.791924 5.562388 4.219700 -4.617700 3.734900 -80.319989 -0.953894 25.008092 11.967492 -19.803417 -2.946761 -1.172216 -0.414064 -7.242892 -7.125000 0.000000 0.000000 75.607212 -0.227635 20.554514 -11.864476 21.634111 -2.905058 0.247137 -0.743420 -2.336295 7.125000 0.000000 0.000000 
48.929707 17.219557 -6.940143 -68.432846 -87.637752 70.597957 -22.760276 0.187775 -2.730874 0.439532 5.469554 17.273652 -0.010463 5.413731 -14.078792 0.015000 -0.792000 -2.176600 33.050270 2.811685 -7.472236 -3.226207 -9.908641 29.549415 -1.497545 -1.590084 -24.020468 -0.857100 -5.904000 16.506200 0.777984 -0.780223 -1.513135 0.776618 -0.680536 5.618159 8.286994 -9.790440 5.557895 4.221800 -4.616900 3.733000 -80.322383 -0.953038 25.024102 11.967271 -19.803144 -2.946450 -1.172355 -0.416657 -7.263278 -7.125000 0.000000 0.000000 75.610030 -0.228843 20.575238 -11.868201 21.638067 -2.906169 0.247192 -0.743798 -2.352707 7.125000 0.000000 0.000000 
48.928170 17.219659 -6.940143 -68.111284 -87.633776 70.279986 -22.759054 0.178618 -2.729530 0.440021 5.470745 17.277835 -0.009173 5.406801 -14.082778 0.015000 -0.790600 -2.172900 33.052389 2.808183 -7.467864 -3.225231 -9.906816 29.543977 -1.498889 -1.587551 -24.029116 -0.859100 -5.910500 16.525100 0.778129 -0.782492 -1.515536 0.776760 -0.682020 5.609652 8.288564 -9.786569 5.552526 4.222300 -4.614700 3.731400 -80.324677 -0.951833 25.042012 11.970002 -19.806046 -2.947211 -1.172760 -0.420213 -7.291635 -7.125000 0.000000 0.000000 75.612803 -0.227438 20.595924 -11.872367 21.642495 -2.907257 0.247463 -0.744006 -2.366796 7.125000 0.000000 0.000000 
48.926736 17.219659 -6.940143 -67.852762 -87.630888 70.025384 -22.759031 0.170192 -2.726999 0.440124 5.470792 17.278633 -0.008419 5.404375 -14.087885 0.015000 -0.791900 -2.176300 33.053247 2.804713 -7.465619 -3.224764 -9.905837 29.540859 -1.499801 -1.586394 -24.035560 -0.859600 -5.912200 16.530000 0.778258 -0.784245 -1.517550 0.776889 -0.683145 5.603946 8.288345 -9.780170 5.546108 4.221000 -4.611100 3.729500 -80.327099 -0.953725 25.057616 11.973315 -19.809660 -2.948429 -1.173419 -0.424339 -7.321548 -7.125000 0.000000 0.000000 75.614960 -0.225165 20.618998 -11.877434 21.647921 -2.908609 0.247900 -0.744115 -2.384748 7.125000 0.000000 0.000000 
48.925096 17.219762 -6.940246 -67.696327 -87.628467 69.873454 -22.759062 0.161601 -2.722657 0.440076 5.470169 17.277703 -0.008284 5.407529 -14.095049 0.015100 -0.793100 -2.179700 33.055177 2.805052 -7.463273 -3.224477 -9.905303 29.539504 -1.500806 -1.585070 -24.042492 -0.860200 -5.914400 16.536200 0.778223 -0.784398 -1.519164 0.777478 -0.683479 5.600828 8.288825 -9.775732 5.541474 4.220300 -4.608400 3.729000 -80.327852 -0.957408 25.076250 11.976320 -19.813045 -2.949438 -1.173900 -0.427743 -7.354254 -7.125000 0.000000 0.000000 75.617939 -0.224440 20.639948 -11.884526 21.655787 -2.910554 0.248488 -0.743898 -2.399292 7.125000 0.000000 0.000000 
48.923559 17.219659 -6.940348 -67.627332 -87.626330 69.809371 -22.758849 0.151516 -2.718460 0.440018 5.469732 17.276728 -0.008217 5.412819 -14.104334 0.015100 -0.794100 -2.182300 33.058116 2.808280 -7.461561 -3.224376 -9.905031 29.538452 -1.501541 -1.586020 -24.048263 -0.860300 -5.914600 16.537000 0.777887 -0.782811 -1.520075 0.778276 -0.682772 5.600332 8.291895 -9.775916 5.539486 4.222400 -4.608100 3.730700 -80.327692 -0.965601 25.092539 11.977938 -19.814361 -2.949894 -1.174315 -0.430713 -7.382107 -7.125000 0.000000 0.000000 75.620877 -0.220964 20.655513 -11.890101 21.662062 -2.911911 0.249006 -0.743593 -2.407548 7.125000 0.000000 0.000000 
